<svg width="108" height="108" viewBox="0 0 108 108" fill="none" xmlns="http://www.w3.org/2000/svg">
<path d="M56.3736 45.7066C56.0541 42.8 55.3344 39.9838 54.1255 37.3263C51.816 32.2499 48.1213 29.1854 42.771 28.4023C39.9049 27.9827 37.0407 27.9603 34.1594 28.0371C30.9727 28.1219 27.7838 28.1183 24.5958 28.1268C23.664 28.1292 22.7324 28.0369 21.8 28.0002C21.6933 27.996 21.584 28.0702 21.4233 28.1266C21.4378 28.3942 21.452 28.66 21.4687 28.972C22.381 29.0818 23.2343 29.1494 24.0755 29.294C25.3943 29.5206 25.6506 29.8469 25.677 31.228C25.7387 34.4341 25.8502 37.6408 25.8366 40.8467C25.7936 50.96 25.7124 61.0734 25.621 71.1865C25.6039 73.0761 25.4798 74.9652 25.387 76.8537C25.3137 78.3458 24.85 78.9085 23.4669 79.1937C23.0878 79.2718 22.6939 79.2694 22.307 79.305C21.8872 79.3437 21.4674 79.3838 21 79.4278V80.4439C21.612 80.4439 22.1152 80.4767 22.6135 80.4387C26.1504 80.168 29.6854 80.201 33.2237 80.4241C35.8307 80.5883 38.4288 80.4995 41.0128 80.0257C45.8795 79.1332 49.674 76.5398 52.3359 72.1305C53.8572 69.6106 54.8552 66.8551 55.5035 63.959C56.8525 57.9336 57.0469 51.8341 56.3732 45.7066H56.3736ZM47.5751 64.4209C47.1015 67.639 46.3752 70.776 44.9934 73.717C42.8861 78.2027 38.8591 79.5473 34.7539 79.0452C34.4629 79.0096 34.1875 78.8328 33.7642 78.6663C33.6888 77.7821 33.5801 77.0115 33.5643 76.239C33.4914 72.6637 33.3911 69.0879 33.398 65.5124C33.417 56.0177 33.4742 46.523 33.5452 37.0287C33.56 35.0576 33.6931 33.0873 33.785 31.1173C33.8478 29.7695 34.1019 29.3993 35.3456 29.2835C38.6604 28.975 41.5874 29.8441 43.8387 32.6147C45.3688 34.4976 46.2509 36.7159 46.8664 39.0736C47.7187 42.3377 48.119 45.6798 48.2411 49.0504C48.427 54.1899 48.3252 59.3235 47.5751 64.4209Z" fill="#990000"/>
<path d="M57.6195 27.5C65.2728 28.3714 80.7797 28.3907 87 27.5269C86.8288 31.6404 86.6586 35.7314 86.4825 39.957C86.3336 40.0479 86.0785 40.2036 85.7391 40.4106C85.469 39.0272 85.2628 37.7316 84.9564 36.4636C84.5901 34.948 84.1563 33.4498 83.7172 31.9556C83.3788 30.8035 82.6305 30.0914 81.5224 29.7852C79.6986 29.2813 77.8565 29.3161 75.9301 29.4229C75.9051 29.9144 75.8665 30.3159 75.8665 30.7175C75.8622 43.1876 75.848 55.6578 75.8712 68.1278C75.8763 70.8927 76.0138 73.6576 76.0959 76.4222C76.1056 76.7512 76.1245 77.0848 76.1853 77.4066C76.3829 78.4543 76.7091 78.7659 77.7285 78.9412C78.9896 79.1578 80.2303 79.3879 81.4906 79.6091C81.5217 79.6145 81.6837 79.6506 81.6837 79.6506C81.6837 79.6506 81.4833 80.2896 81.4152 80.5H62.4277C62.3675 80.3044 62.1796 79.6119 62.1796 79.6119C62.1796 79.6119 62.4971 79.5745 62.5961 79.5592C63.4787 79.4229 64.2813 79.2905 65.165 79.1621C65.472 79.1175 65.7801 79.0713 66.0813 78.9964C67.4599 78.6542 67.9092 78.0912 67.9536 76.6036C68.02 74.3752 68.1103 72.146 68.115 69.9171C68.1418 56.9928 68.1463 44.0685 68.1584 31.1444C68.159 30.616 68.1584 30.0874 68.1584 29.4616C67.6533 29.4345 67.2767 29.3748 66.9056 29.4018C65.7066 29.4891 64.5044 29.5645 63.3133 29.7262C61.7179 29.9428 60.5831 30.8706 60.0101 32.4798C59.2149 34.713 58.4564 36.9612 57.6917 39.2066C57.5083 39.7446 57.3622 40.2968 57.1789 40.9091C56.88 40.7624 56.6491 40.6492 56.5 40.5761C56.8762 36.1812 57.2448 31.8783 57.6197 27.5002L57.6195 27.5Z" fill="black"/>
</svg>
