<?xml version="1.0" encoding="UTF-8"?>
<svg id="uuid-f6c507dd-f0e4-4cee-aff9-5fb72b7a11ba" xmlns="http://www.w3.org/2000/svg" version="1.1" viewBox="0 0 512 512">
  <defs>
    <style>
      .cls-1 {
        fill: #c61212;
      }

      .cls-1, .cls-2 {
        stroke-width: 0px;
      }

      .cls-2 {
        fill: #fff;
      }
    </style>
  </defs>
  <path class="cls-1" d="M268.9,211.5c-1.7-15.5-5.5-30.6-12-44.7-12.3-27.1-32-43.5-60.6-47.6-15.3-2.2-30.6-2.4-45.9-1.9-17,.5-34,.4-51,.5-5,0-9.9-.5-14.9-.7-.6,0-1.2.4-2,.7,0,1.4.2,2.8.2,4.5,4.9.6,9.4.9,13.9,1.7,7,1.2,8.4,3,8.5,10.3.3,17.1.9,34.2.9,51.4-.2,54-.7,108-1.2,162,0,10.1-.8,20.2-1.2,30.3-.4,8-2.9,11-10.2,12.5-2,.4-4.1.4-6.2.6-2.2.2-4.5.4-7,.7v5.4c3.3,0,5.9.2,8.6,0,18.9-1.4,37.7-1.3,56.6,0,13.9.9,27.8.4,41.5-2.1,26-4.8,46.2-18.6,60.4-42.2,8.1-13.5,13.4-28.2,16.9-43.6,7.2-32.2,8.2-64.7,4.6-97.5h0ZM221.9,311.4c-2.5,17.2-6.4,33.9-13.8,49.6-11.2,24-32.7,31.1-54.6,28.4-1.6-.2-3-1.1-5.3-2-.4-4.7-1-8.8-1.1-13-.4-19.1-.9-38.2-.9-57.3.1-50.7.4-101.4.8-152.1,0-10.5.8-21,1.3-31.6.3-7.2,1.7-9.2,8.3-9.8,17.7-1.6,33.3,3,45.3,17.8,8.2,10.1,12.9,21.9,16.1,34.5,4.5,17.4,6.7,35.3,7.3,53.3,1,27.4.4,54.8-3.6,82.1h0Z"/>
  <path class="cls-2" d="M274.8,114.7c40.9,4.6,123.8,4.7,157.1.1-.9,21.9-1.8,43.6-2.8,66.1-.8.5-2.2,1.3-4,2.4-1.4-7.4-2.5-14.2-4.2-21-2-8.1-4.3-16-6.6-24-1.8-6.1-5.8-9.9-11.7-11.5-9.7-2.7-19.6-2.5-29.9-1.9-.1,2.6-.3,4.7-.3,6.9,0,66.3,0,132.6,0,198.9,0,14.7.8,29.4,1.2,44.1,0,1.8.2,3.5.5,5.2,1.1,5.6,2.8,7.2,8.2,8.2,6.7,1.2,13.4,2.4,20.1,3.6.2,0,1,.2,1,.2,0,0-1.1,3.4-1.4,4.5h-101.5c-.3-1-1.3-4.7-1.3-4.7,0,0,1.7-.2,2.2-.3,4.7-.7,9-1.4,13.7-2.1,1.6-.2,3.3-.5,4.9-.9,7.4-1.8,9.8-4.8,10-12.7.4-11.9.8-23.7.9-35.6.1-68.7.2-137.5.2-206.2,0-2.8,0-5.6,0-8.9-2.7-.1-4.7-.5-6.7-.3-6.4.5-12.8.9-19.2,1.7-8.5,1.2-14.6,6.1-17.7,14.6-4.3,11.9-8.3,23.8-12.4,35.8-1,2.9-1.8,5.8-2.7,9.1-1.6-.8-2.8-1.4-3.6-1.8,2-23.4,4-46.3,6-69.5h0Z"/>
</svg>