<svg width="1024" height="1024" viewBox="0 0 1024 1024" fill="none" xmlns="http://www.w3.org/2000/svg">
<rect width="1024" height="1024" fill="white"/>
<path d="M537.726 423.03C534.318 391.992 526.64 361.92 513.744 333.542C489.108 279.334 449.694 246.61 392.62 238.248C362.046 233.768 331.492 233.528 300.756 234.348C266.762 235.254 232.744 235.216 198.736 235.306C188.796 235.332 178.858 234.346 168.912 233.954C167.774 233.91 166.608 234.702 164.894 235.304C165.048 238.162 165.2 241 165.378 244.332C175.11 245.504 184.212 246.226 193.186 247.77C207.254 250.19 209.988 253.674 210.27 268.422C210.928 302.658 212.118 336.9 211.972 371.134C211.514 479.128 210.648 587.122 209.672 695.114C209.49 715.292 208.166 735.464 207.176 755.63C206.394 771.564 201.448 777.572 186.694 780.618C182.65 781.452 178.448 781.426 174.32 781.806C169.842 782.22 165.364 782.648 160.378 783.118V793.968C166.906 793.968 172.274 794.318 177.59 793.912C215.32 791.022 253.03 791.374 290.774 793.756C318.584 795.51 346.3 794.562 373.864 789.502C425.78 779.972 466.258 752.278 494.654 705.194C510.882 678.286 521.528 648.862 528.444 617.936C542.834 553.594 544.908 488.462 537.722 423.03H537.726ZM443.868 622.868C438.816 657.232 431.068 690.73 416.328 722.136C393.848 770.036 350.89 784.394 307.098 779.032C303.994 778.652 301.056 776.764 296.54 774.986C295.736 765.544 294.576 757.316 294.408 749.066C293.63 710.888 292.56 672.704 292.634 634.524C292.836 533.136 293.446 431.748 294.204 330.364C294.362 309.316 295.782 288.276 296.762 267.24C297.432 252.848 300.142 248.894 313.41 247.658C348.77 244.364 379.994 253.644 404.01 283.23C420.332 303.336 429.742 327.024 436.308 352.2C445.4 387.056 449.67 422.744 450.972 458.736C452.956 513.618 451.87 568.436 443.868 622.868Z" fill="#990000"/>
<path d="M549.516 229.434C631.336 238.702 797.118 238.908 863.618 229.72C861.788 273.472 859.968 316.984 858.086 361.928C856.494 362.894 853.766 364.55 850.138 366.752C847.25 352.038 845.046 338.258 841.77 324.772C837.854 308.652 833.216 292.716 828.522 276.824C824.904 264.57 816.904 256.996 805.058 253.74C785.56 248.38 765.866 248.75 745.272 249.886C745.004 255.114 744.592 259.384 744.592 263.656C744.546 396.288 744.394 528.922 744.642 661.554C744.696 690.962 746.166 720.37 747.044 749.774C747.148 753.274 747.35 756.822 748 760.244C750.112 771.388 753.6 774.702 764.498 776.566C777.98 778.87 791.244 781.318 804.718 783.67C805.05 783.728 806.782 784.112 806.782 784.112C806.782 784.112 804.64 790.908 803.912 793.146H600.92C600.276 791.066 598.268 783.7 598.268 783.7C598.268 783.7 601.662 783.302 602.72 783.14C612.156 781.69 620.736 780.282 630.184 778.916C633.466 778.442 636.76 777.95 639.98 777.154C654.718 773.514 659.522 767.526 659.996 751.704C660.706 728.002 661.672 704.292 661.722 680.586C662.008 543.122 662.056 405.658 662.186 268.196C662.192 262.576 662.186 256.954 662.186 250.298C656.786 250.01 652.76 249.374 648.792 249.662C635.974 250.59 623.122 251.392 610.388 253.112C593.332 255.416 581.2 265.284 575.074 282.4C566.572 306.152 558.464 330.064 550.288 353.946C548.328 359.668 546.766 365.542 544.806 372.054C541.61 370.494 539.142 369.29 537.548 368.512C541.57 321.768 545.51 276.002 549.518 229.436L549.516 229.434Z" fill="black"/>
</svg>
