<?xml version="1.0" encoding="UTF-8"?>
<svg id="uuid-f6c507dd-f0e4-4cee-aff9-5fb72b7a11ba" data-name="Layer 2" xmlns="http://www.w3.org/2000/svg" width="512" height="512" viewBox="0 0 512 512">
  <g id="uuid-9b50a13c-b4d4-4b08-816e-eb0c557b2a5b" data-name="Layer 1">
    <rect width="512" height="512" fill="#fff" stroke-width="0"/>
    <g>
      <path d="M268.863,211.515c-1.704-15.519-5.543-30.555-11.991-44.744-12.318-27.104-32.025-43.466-60.562-47.647-15.287-2.24-30.564-2.36-45.932-1.95-16.997.453-34.006.434-51.01.479-4.97.013-9.939-.48-14.912-.676-.569-.022-1.152.374-2.009.675.077,1.429.153,2.848.242,4.514,4.866.586,9.417.947,13.904,1.719,7.034,1.21,8.401,2.952,8.542,10.326.329,17.118.924,34.239.851,51.356-.229,53.997-.662,107.994-1.15,161.99-.091,10.089-.753,20.175-1.248,30.258-.391,7.967-2.864,10.971-10.241,12.494-2.022.417-4.123.404-6.187.594-2.239.207-4.478.421-6.971.656v5.425c3.264,0,5.948.175,8.606-.028,18.865-1.445,37.72-1.269,56.592-.078,13.905.877,27.763.403,41.545-2.127,25.958-4.765,46.197-18.612,60.395-42.154,8.114-13.454,13.437-28.166,16.895-43.629,7.195-32.171,8.232-64.737,4.639-97.453ZM221.934,311.434c-2.526,17.182-6.4,33.931-13.77,49.634-11.24,23.95-32.719,31.129-54.615,28.448-1.552-.19-3.021-1.134-5.279-2.023-.402-4.721-.982-8.835-1.066-12.96-.389-19.089-.924-38.181-.887-57.271.101-50.694.406-101.388.785-152.08.079-10.524.789-21.044,1.279-31.562.335-7.196,1.69-9.173,8.324-9.791,17.68-1.647,33.292,2.993,45.3,17.786,8.161,10.053,12.866,21.897,16.149,34.485,4.546,17.428,6.681,35.272,7.332,53.268.992,27.441.449,54.85-3.552,82.066Z" fill="#900" stroke-width="0"/>
      <path d="M274.758,114.717c40.91,4.634,123.801,4.737,157.051.143-.915,21.876-1.825,43.632-2.766,66.104-.796.483-2.16,1.311-3.974,2.412-1.444-7.357-2.546-14.247-4.184-20.99-1.958-8.06-4.277-16.028-6.624-23.974-1.809-6.127-5.809-9.914-11.732-11.542-9.749-2.68-19.596-2.495-29.893-1.927-.134,2.614-.34,4.749-.34,6.885-.023,66.316-.099,132.633.025,198.949.027,14.704.762,29.408,1.201,44.11.052,1.75.153,3.524.478,5.235,1.056,5.572,2.8,7.229,8.249,8.161,6.741,1.152,13.373,2.376,20.11,3.552.166.029,1.032.221,1.032.221,0,0-1.071,3.398-1.435,4.517h-101.496c-.322-1.04-1.326-4.723-1.326-4.723,0,0,1.697-.199,2.226-.28,4.718-.725,9.008-1.429,13.732-2.112,1.641-.237,3.288-.483,4.898-.881,7.369-1.82,9.771-4.814,10.008-12.725.355-11.851.838-23.706.863-35.559.143-68.732.167-137.464.232-206.195.003-2.81,0-5.621,0-8.949-2.7-.144-4.713-.462-6.697-.318-6.409.464-12.835.865-19.202,1.725-8.528,1.152-14.594,6.086-17.657,14.644-4.251,11.876-8.305,23.832-12.393,35.773-.98,2.861-1.761,5.798-2.741,9.054-1.598-.78-2.832-1.382-3.629-1.771,2.011-23.372,3.981-46.255,5.985-69.538Z" stroke-width="0"/>
    </g>
  </g>
</svg>